<svg version="1.2" xmlns="http://www.w3.org/2000/svg" viewBox="0 0 1600 336" width="1600" height="336">
	<title>image</title>
	<style>
		.s0 { fill: #1f4912 } 
	</style>
	<path id="Layer" fill-rule="evenodd" class="s0" d="m434 2l1.2 0.8v-2.4l1.7 1.6 1-0.3 1.6 0.8 2 0.5v-1.8l1.9 2.4 2-2 1.5 3 1.6 0.8 2.5-0.4 0.9-0.5 1.1 1h1.3l-0.4-1.5 2 1.5 1 1 2.3-1.3-0.9-2.2 0.3-1.6c0 0 2.4 0.3 2.4 0.5 0 0.1 2 2.1 2 2.1l0.5 1.2 0.8-0.9v-1.4c0 0 1.1-0.4 1.1-0.1 0 0.3 0.9 2.5 1 1.4 0.1-1 0-1.9 0-1.9l1.5-0.9v2.6l1.8 1.3 1.5-1.3 1.2-0.4 2.4-1v1.5l1.8 0.5 2.8-1.2 0.9 1.9 3.5 1 2.7 0.7 2.4-1 2.2 0.3 1.3-1.3 2-0.4 1.4-0.5 2.4 1 1.6-0.9 2.6-1.1v-0.7l1.8 2.6v-4l2.8 3.5 2 0.1 0.9-0.4v2.3l2.9 1 2.9-1.7 1.1-1.7 1.8 1.7 1.5-2.3 1.1 2.1 1.6 0.6 2.4-1.1 1.1 1 1.1 0.5 1.7 0.5 2.1-1.3v-1.6l2.4 2.4 2.2 1v-2.2l2.4 2.1 3.5 1h2.3v-1.5l2.2 2.5 3.9 0.2 3.1-1.7-0.9-1.8 3.4 2.8 4.1 0.2 2.5-1.4v-1.3l1.5 3.1 2.2 2 4 0.2c0 0 0.6-0.2 1.1-0.5l-0.9-3.2c0.7-0.8 2.3-0.8 3.4 0 1.8-0.6 2.8 0.6 4.1 1.2 2.7-1.1 5.6-0.5 8.4-0.7q0.4-0.6 0.7-1.2c1.2-0.2 1.6-1.7 3.1-1.6 0.2 1.2 0.1 2.7 2.5 2.1 1.7 0.3 3.4-0.5 5.1-0.9 1.3 0.4 0.9 1.3 1 2.1q0.2 0 0.4 0c0.1 0.9 1.2 0.4 1.5 0.9 1.3 2.6 3.4 3.5 7 3q0.5-0.4 1-0.8 1.1-0.4 2.1-0.8c0.7 0.1 1.5-0.1 2.1 0.4 0.3 0.5 1.1 0.6 1.5 1l0.4 0.1q0 0-0.2 0.2 0 0 0.1 0.1c0.2 1.3 1.4 1.3 2.6 1.2 1.1-0.6 2.4-0.2 3.6-0.2v1.1q0.2 0.5 0.5 0.9 0.2 0 0.4 0 0.7 0.1 1.4 0v-0.3l0.2 0.2c1.7-0.4 3.4-1.8 5.1-2q0.3-0.2 0.5-0.4c0.7-0.5 1.5-0.7 2.4-0.2 0.2 0.3 0.4 0.5 0.6 0.8 0.2 0.7 0.9 0.7 1.6 0.8q0 0.2 0 0.4 0.2 0.2 0.4 0.4c0.5-0.2 0.8 0.1 1.1 0.4 0.6 0.5 1.4 1 1.4 1.8 1.1 0.8 2.6-0.3 3.8-0.1 0.4-0.1 0.9-0.2 1.3-0.3 1.3-0.8 2.8 0.6 4.1-0.4q0.5 0.7 0.9 1.5c1.1-0.5 2-0.1 2.7 0.7 1.9 0 3.6-5.8 4.2-4 1.4-1 2.8-0.6 4-1.8 0.9-0.8 1.8-1.1 3.1-0.8 0.9 0.2 1.9 0.5 2.8 0.8q0 0 0.1 0.1-0.1 0.8-0.1 1.5 1 0.2 1.5 0.9c2-0.1 4.2 3.9 5.2 1.2 0.2-0.7 1 0.4 1.2 1 0.1 0.6-0.1-0.8 0.5-0.3q0 0.2 0 0.4 0.3 0 0.5 0 0 0.1 0 0.1 0.1-0.1 0.3-0.3c0.6 0 1.3-2.1 1.9-1.9q0.7 0.5 1.4 0.9c1.1-1 2.8-0.9 4.1-1.6 1.3-0.2 2.2 0.1 2.5 1.3q0.2 0.5 0.5 0.9c1.1 1.4 3.6 0.1 3.5 2.2 0 0.2 0.6 0 1 0 0.9-0.1 1.8-0.1 2.1 0.4 1.4 0.4 2.4 0 2.5 1.3 0.8 0.7 1.4-1.8 2.5-1.3 1.4 0.3 4-2.1 4.6-0.7q0.4-0.3 0.7-0.6c1.4 0.4 2.6 0.9 3.5 1.9 0.6 0.8 1.7 1.1 2.8 0.4 0.7 0 1 0.2 1.2 0.6h0.2l1.1-0.2h1.8l0.8-1.9 1.9 2.2 0.6 0.7 0.8 0.7 0.9-0.1 0.8-1.2 1 1.2 0.3 0.3c0.6-0.2 1.1-0.2 1.5-0.2v-0.4l1.4 0.4h0.1c0.6 0 1.2-0.1 2.1-0.6l0.7-0.6v-0.6l0.3 0.5 1.5-1.1c0.7-0.5 1.4-0.9 2.2-0.1 0.6 0.6 1.1 1.2 1.7 1.5l1.4-1.4 1.2-1.1v1.9c0.5-0.3 1.2-0.5 1.9-0.2l0.4-0.1 0.4 0.5c0.8-0.1 1.4 0.3 1.8 0.4l0.5-0.4q0-0.3-0.1-0.9c-0.3-1.4 0.1-0.4 0.9 0.2l0.2-0.2 0.6-1.1v0.5q0-0.4 0.4-0.6c1.7-1.2 2.4 1.4 3.2-0.2 0.1-0.5 0.5 0.1 0.8 0.8l0.7-0.5 1.4 0.8q0 0 0 0c0.4-1.2 1.1 0.3 2.4-0.1 0.5-0.1 1-0.1 1.5 0l0.9-0.5 0.7 1.1-0.1 0.2q0.1 0.1 0.3 0.2l1.9-1.2 1.7-0.5-1.7 2.1 2.9-1.5 1.8-0.8q0.1 0 0.3 0 0-0.2 0-0.4c1 0 2 0 2.9 0.3l1.2-1 0.8-1.7 1.1 0.1v1.3l2 0.9 3.8-2.6-2.8 3.8 2.8-0.1 0.6 1.3 2.1 0.6c1.1-1.1 2.2-1.9 3.3-0.6 0.7 0.8 1.8 0.2 2.8 0.6 1.1 0.5 1.9 1.6 3.2 2l1-0.2-0.1 0.3q0.4 0 0.8-0.1c0.7-0.3 1.4-1.2 2.3-0.3q0.1 0.2 0.2 0.3l1-0.7 0.3 0.5c1.2-0.7 1.5-0.1 1.7 0.6q0.3 0.1 0.6 0.1c0.3-0.5 0.5-1.2 0.6-1.6 0.4 0.3 0.3-0.1 0.4 0.5l0.4-0.4v0.6q0.3 0.1 0.6 0.3 0.4 0.4 0.8 0.8v-0.3l0.8-0.3 0.3 1.3q0.3 0.1 0.8 0.1l0.3-0.3 0.9-0.9 0.4 0.7c0.7-0.4 0.7-1.1 0.8-1.9q0.2 0 0.5 0c1.2-0.9 2.5-0.9 3.9-0.4q1.8 0.7 3.7 0.1 0.2 0.1 0.5 0.2 0.2-0.1 0.4-0.1c0.4 0.4 0.9 0.9 1.7 0.6 2.2-1 3.9-0.4 5.5 1 0.4 0.3 1 0.4 1.7 0.5q0 0 0.1 0c0.1-0.3 1.3-1.6 1.3-1.6l0.9-0.9 1-1.2-0.1 1.8-0.5 1.2-1.3 0.7c1.1 0 2.2-0.3 2.6-0.8 0.9-1.1 1.9-1.2 3.2-0.8 0.6 0.2 1.2 0.2 1.7-0.1 0.7-2 2.2-2.2 4.2-0.7q0 0.1 0 0.2c1.3 0.5 2 0.1 2.4 1.2 0.2-0.2 1.1 1.1 2.3 2.8q0.2-0.1 0.4-0.2c0.2-0.1 0.5 0.8 0.7 1.8q0.4 0.7 0.8 1.3c0.3-0.4 0.6-0.7 0.6-0.7l0.7-1 2.1 1.4 0.5 0.6c0.9-0.2 1.1-0.9 0.5-2q1.2 0.1 2.4 0.3 0-0.1 0.1-0.1 0.8 0 1.5 0c1.4-0.2 1.2 3.5 1.4 2.9 0.8-1.5 2.5-2.2 3.9-3.1v-0.1c0.3-0.9 0-2.1 1.9-2.1 0.4 0 0.6-0.6 0.9-0.9 1.3-1.9 3.3-2.7 5.8-2.3 0.3 0.4 1.1 1.4 1.3 1.5q0.2 0 0.5 0.1c1.1 0.9 2.1 1.9 3.7 2.3 0.6-0.1 1.5 0.1 1.7-0.6 0.9-2.9 1.9-0.6 2.8 0 0.9 0.3 1.5 1.1 2.6 1.1 2 0.5 4 1 5 2.9 0.9 1.8 5.5 2.4 7.1 0.9 1.7-1.7 3.4-6.4 5.3-5 0.4 1 0.9 1.7 2.5 1.5 2.3-0.4 4.1 0.4 4.9 2.4 1 1 2.3-0.2 3.4 0.3q0.1-0.1 0.3-0.2c2.3 0.1 4.7 0.1 6.8-0.9 1.2-0.6 2.4-0.7 3.7-0.9 0.7-0.1 0.7-1.3 1.8-0.7 0.2 0.5 0.6 0.9 1.1 0.6 2.6-1.2 4.8 0.1 7.1 0.7 0.1-0.1 0.4-0.3 0.4-0.2 2 1.3 3.2 0.8 5.1-0.7 2.2-1.7 5.2-0.5 8.4-1.2 1.8-1.4 2.3-1.2 3.2 1.3q0 0.4-0.2 0.8c0.1 0.1 0.1 0.2 0.2 0.3q1.5-0.1 3-0.2c0.7 0.3 1.3 0.6 1.6 1.1q0.7 0.2 1.4 0.4 0.5-0.1 1-0.3c0.5-0.6 1.2-1.1 2.3-1 0.3-0.2 0.9-0.3 1.2-0.5 0.8-0.6 1.8-1.1 2.8-0.8 1.5 0.4 2.5-0.2 3.7-0.6q0.1 0.1 0.1 0.3c1.3 1.5 2.5 0.4 3.2-0.3 1-0.9 2-1.9 2.2-3.3q0.2 0 0.5-0.1c1.1-0.5 2.3-1.6 3.2 0.3 0.6-0.4 1.4-0.1 2.1-0.3 2.5-0.4 5.3 1 7.8-0.5 0.2-0.2 0.6 0 0.9 0.1 2.7 0.5 5.2 1.5 8.1 1 0.6-0.1 1.3 0.1 1.3 0.9q0 0.1 0 0.3 0.1 0.2 0.1 0.4c1.8-0.1 3.4-0.7 4.9-1.6 0.6-0.3 1.3-0.4 2.1-0.3 1 0.2 1.9 0.5 2.3 1.4q0.1 0.1 0.1 0.2c0.5 0 0.8 0.2 1.2 0.6q0 0 0 0.1c0.3-0.1 0.6-0.1 0.9 0.2 0.9 1.7 2.4 1.1 4.1 1.1 1.4 0 1.9 0.1 2.1-1.1 0.2-1.5 0.7-1.9 2-1.4q0.4 0.1 0.9 0.2 0.1 0.1 0.2 0.2 0.2-0.1 0.4 0c1.4 0.3 2.8 0.1 4 0.7 1 1.6 2.3 2.5 4.5 2.1 0.9-0.2 1.5 0.3 2.3 0.6 1.3 0.4 2.5 1.1 3.8 1.5q0.1 0.1 0.1 0.2c0.8 0.1 1.7-0.2 2.3 0.1 1.5 0.7 2.3-5 3.4-5.9 0.3-0.1 0.7-0.1 1 0q0.3 0 0.7 0.2c2.1 0.2 3.5 1 3.5 2.9 0 2 1.8 2.7 3.6 3.3 0.9 0.5 1.6-0.3 2.4-0.5-0.7-1.6-0.3-1.8 1.9-1.5q0.3 0.2 0.6 0.5 0.1 0.1 0.1 0.2c0.8 0 1.7 0.1 2-0.7 0.4-1.6 2-2.1 3.4-2.8q0.7-0.2 1.4-0.5c0.5-0.3 0.9 0.1 1.2 0.3q0.1 0.1 0.1 0.1c1.2 0 2.1-0.8 3.2-1 1.5-0.5 3.3-1.4 3.6 1v0.1q0 0.1 0 0.2c1.7 0 3.4-0.4 5.1-0.1q0.5 0.3 1 0.5 0.3 0.1 0.5 0.3c2.6 0.1 4.1 2.1 6.5 2.4q0.1 0.1 0.1 0.1 0.1 0.1 0.3 0.2c1.6 0.7 3.1-6.4 5.1-6.2 0.8 0.1 1.5 0.6 1.9 1.4q0.2 0.1 0.4 0.2 0.3 0.2 0.5 0.4 0 0.1 0 0.2c0.3 0.1 0.6 0.3 0.4 0.6 0.3-0.1 0.5-0.2 0.7 0 2.5 1.7 4 0.3 5.5-1.2 0.1-0.1 0.3-0.2 0.4-0.3q0.2-0.2 0.4-0.4 1 0 1.5 0.8c2 0.5 3.9 1.1 4.3 3.1q0-0.1 0.1-0.2c1.5-0.4 3-0.1 4.4 0.1 1.2 0.1 2.9 0.2 3.6 1.5q0.6 0.6 1.2 1.2c1.2 1.8 2.8 1.8 4.9 0.8 1.5-0.8 2.9-2 4.9-1.7 1.6 0.2 3 0.6 4.3-0.9 0.6-0.8 2.2-0.9 3.4-0.2 1.8-0.7 2.9 0.4 4.2 0.9 2.6-1.2 5.6-0.8 8.4-1.2q0.2-0.6 0.5-1.2c1.2-0.3 1.4-1.8 2.9-1.8 0.4 1.2 0.4 2.7 2.7 2 1.7 0.1 3.4-0.8 5-1.3 1.4 0.3 1 1.3 1.2 2q0.2 0.1 0.4 0.1c0.2 0.8 1.3 0.2 1.6 0.7 1.5 2.6 3.7 3.3 7.2 2.6q0.5-0.4 1-0.9 1-0.4 2-0.9c0.7 0 1.5-0.2 2.1 0.3 0.5 0.6 1.7 0.5 1.9 1.2 0.4 1.4 1.5 1.3 2.7 1.2 1-0.6 2.1-0.5 3.2-0.5 0.2 0.1 0.2 0.2 0.4 0.3l0.1 0.8q0.3 0.4 0.6 0.8 0.2 0 0.4 0.1c2.3 0.3 4.3-2.2 6.5-2.5q0.2-0.2 0.5-0.4c0.5-0.6 1.2-0.8 2-0.6 0.4 0.4 0.7 0.6 1 0.9 0.3 0.7 1 0.6 1.6 0.7q0 0.2 0.1 0.4 0.2 0.2 0.4 0.4c0.5-0.2 0.8 0.1 1.1 0.4 0.7 0.4 1.5 0.8 1.6 1.6 1.1 0.7 2.5-0.4 3.8-0.3 0.4-0.1 0.9-0.3 1.3-0.4 1.2-0.8 2.9 0.4 4-0.6q0.5 0.7 1 1.4c1.1-0.6 2-0.2 2.8 0.5 1.9-0.1 3.1-5.9 3.8-4.2 1.3-1.1 2.7-0.8 3.9-2 0.8-0.9 1.7-1.2 3-1 0.8 0.2 1.7 0.4 2.5 0.6q0.2 0.2 0.4 0.4 0.1 0.6 0.1 1.2 1 0.1 1.6 0.8c1.9-0.2 4.5 3.6 5.3 0.9 0.1-0.7 1 0.3 1.2 0.9 0.2 0.6-0.1-0.8 0.5-0.3q0 0.2 0.1 0.4 0.2 0 0.4 0 0.1 0 0.1 0 0.1-0.1 0.2-0.2c0.6-0.1 1.1-2.3 1.7-2q0.7 0.4 1.5 0.8c1-1.1 2.7-1.2 4-1.9 1.3-0.3 2.2 0 2.6 1.2q0.3 0.4 0.6 0.8c1.2 1.4 3.6-0.2 3.7 2 0 0.2 0.6 0 0.9-0.1 1-0.2 1.8-0.2 2.2 0.3 1.4 0.4 2.3-0.1 2.6 1.2 0.8 0.6 1.3-1.9 2.4-1.5 1.4 0.3 3.8-2.3 4.5-1q0.3-0.2 0.5-0.5 0.2 0 0.4-0.1c1.3 0.3 2.5 0.7 3.4 1.7 0.7 0.7 1.8 1 2.9 0.2 1.3-0.2 1.3 0.8 1.8 1.4q0.1-0.1 0.2-0.2c0.4-0.2 0.9-0.3 1.4-0.3 1.8-0.3 3.4 0.2 4.7 1.3 0.7 0.8 1.6 1.3 2.8 1.1 0-0.1 0-0.1 0.1-0.2-0.4-0.5-0.2-1.2 0.3-1.4 2.6-1 3.1 0.2 5.2-1.3l2.4-1.9c0.6-0.5 1.3-0.9 2.1-0.2 1.5 1.3 2.7 2.3 4 1 0.5-0.5 1.4-1.1 2.6-0.6q0 0.2 0 0.5c1.6-1 3.4 1.5 2.6-1.2-0.5-2 0.8 0.9 2.2 0.3q0 0 0 0c-0.7-0.6-0.7-1.3-0.2-1.7 1.6-1.2 2.5 1.3 3.2-0.3 0.2-1.2 1.6 2.8 2.2 1.8q0.4-0.5 0.8-1c0.3-1.2 1.1 0.3 2.4-0.1 2.8-1.1 4.1 2.7 6.2 1.1q0.5-0.4 1-0.9 0.4 0 0.7 0c0.8-0.7 1.3-1.2 2.1-1.8q0.1-0.2 0.1-0.4c1.7-0.1 3.3-0.1 4.6 1 0.5 0.3 0.7 1.1 1.5 1 3.1-0.6 3.2-1.4 4.8-0.4 1.1 0.6 2 1.7 3 1.2 1.3-1.4 2.5-3.1 4-1.6 0.7 0.8 1.8 0.1 2.8 0.5 1.7 0.6 2.8 2.4 5.1 1.6 0.7-0.3 1.3-1.3 2.3-0.4 0.3 0.4 0.7 0.6 1.2 0.2 1.6-1.3 1.8-0.2 2.1 0.8 0.4 0.5 0.9-1.3 1-2.1 0.4 0.3 0.3-0.1 0.4 0.5q0.5 0.2 1 0.4c1 0.9 1.7 1.8 3.6 1.3 1.6-0.5 1.5-1.4 1.5-2.3q0.2-0.1 0.4-0.1c1.1-1 2.5-1.1 4-0.6 1.2 0.3 2.4 0.3 3.6-0.2q0.2 0.1 0.5 0.2 0.2-0.1 0.4-0.1c0.5 0.3 1 0.8 1.8 0.4 2.1-1.1 3.8-0.6 5.6 0.7 1.2 0.8 4.9 0.4 5.6-0.6 0.8-1.2 1.8-1.4 3.2-1 0.6 0.1 1.1 0.1 1.6-0.3 0.5-2 2-2.3 4.2-0.9q0 0.1 0 0.2c1.3 0.4 2 0 2.4 1 0.6-0.5 1.4-0.5 2.2-0.2 1.1 1 2.2 2.1 4.2 1.3q0.2 0 0.5 0 0.7-0.1 1.5-0.2 0.7-0.3 1.5-0.4 0.4-0.1 0.7-0.1 0.1 0 0.1 0c1.1-1.4 2.1-1.4 3.2-2.7q0-0.4 0.1-0.8c1.2-1 3.4 2.1 4 0.6 0.3-0.2 0.6-0.4 1-0.2 1.2-0.5 2.6-0.7 3.4-1.8 0.7-0.9 1.3-0.8 2 0.1 0.8 0.8 2 1 3.2 0.5 3-2.3 4.4-2.4 6.1-0.4q0.2 0.1 0.4 0.1c0.8 0.2 1.1 0.7 1 1.4q0 0 0 0 0.1 0.1 0.2 0.2 0.3 0.4 0.5 0.8 0.1 0 0.1 0.1c2 0.3 2.6 1.8 3.6 3 0.1 0 0-3.3 0.1-3.3q2.3 0.8 3 2.8c1.9-0.5 3.8-2.6 5.7-2 1.1 0.3 2.1 2 2.8 1.1 0.7-0.9 1.7-1.3 3-1.3 0.5 0 1 4 1.6 4 0.4-0.3 0.9-0.4 1.4-0.5q0.2-0.2 0.5-0.4c0.2-0.1 0.4-0.2 0.7-0.2q0 0 0-0.1 0-0.2 0.2-0.5 0-0.1 0-0.2-0.2-0.3 0-0.5c2 0.5 2.3-1.4 3.6-1.7q0.1-0.1 0.1-0.1 0.1 0 0.2 0-0.1-0.1-0.1-0.2c1.2-0.6 3.2 4.9 3 3 0.7-0.4 1.3-0.3 1.8 0.1q0 0 0 0 0.3-0.2 0.7-0.2 0 0 0 0c0.1-0.2 0.3-0.3 0.5-0.4q0.9-0.7 1.8-1.4c0.6-0.8 1.9-0.6 2.6-1.3 0.5-0.9 1.7 1.5 2.4 1q0-0.2 0-0.4c0.1-0.2 0.2-0.4 0.5-0.4q0.2-0.1 0.4-0.1c1-0.9 2-1.7 3.1-0.1q0 0 0 0.1 0.1 0 0.1 0c0.9 0.3 1.8 0.7 2.6 1.1 0.9 0.4 2.3 0.7 2.1 1.9q0 0 0 0c0.5-0.1 0.9-0.2 1 0.1 0.5-0.5 1-1 1.7-0.8 2.1 0.6 4.4 0.4 6.4 1.2q0.1 0.2 0.2 0.4c0.1 0 0.3-1.4 0.4-1.4 0.8-0.2 1.4-1.9 2-1.5 0.6 1.1 1.6-0.3 3.1-0.2 0.8 0 1.5 0.1 1.4 1q-0.1 0-0.1 0.1 0 0 0 0 0.7-0.7 1.8-0.4 0.4 0.1 0.7 0.3 0.3 0.3 0.2 0.6 0 0 0.1-0.1c1.6-0.2 3.2 0.7 4.8 0 0.1 0.1 0.2 0.9 0.3 2.5 4.9-2.1 11-2.1 15.9-0.2 0-0.7 0.1-1.2 0.1-1.1 0.2-0.3 0.4-0.6 0.8-0.7 0.7-0.2 9.6 1.7 10.3 1.8 0.4-0.1 0.8-0.2 1.2-0.4q0.4-0.2 0.8-0.4 0-0.2-0.1-0.3c0.9-1.3 1.7 3.6 1.9 2 0-0.5 0.3-1 0.8-1q0 0 0-0.1c0.5-0.7 1.1-1.5 1.8-2.2 0.9-0.8 1.7-0.9 2.7-0.2q0.1 0.1 0.2 0.2c1.3-0.7 2.5-1.8 4.3-1.6q0.2 0.1 0.2 0.3c0.9 0.4 1.7-1.1 2.5-0.6q1.8-0.8 3.8-1.4l3.3-1.1 4.8 0.5 2.2-0.9-0.5-1.2h66.2v311.2h-1600v-323l1.7 0.7 2-0.8v-1l2.6 0.1 1.5 0.2 1.4 0.8 2.9-0.7v-1.3l1-1.9 0.9-0.8 1.9 1.2 1.7-1.2 0.5 2 2.3-1 2.9-0.2v0.4l1.5 0.4c0 0 1.6-0.1 1.8-0.4 0.3-0.4 1.5-1.2 1.5-1.2h3.2l1.1 1.1 1.4-0.4 1.2-0.7 2 0.8 1.7-1.4 1.3-1h1.2l0.8 1.6v1h2l2-0.8c0 0 1 0.6 1.6 0.2 0.6-0.4 1.1-2.1 1.7-2 0.6 0.1 0.7 1.4 0.7 1.4l1.7-0.5 2.6-2 1.8-0.7 2.4 1.8 2.1 0.1 3.3-1.9 1.2-0.7 1.3 0.6 2.7 0.3 1.1-0.5 1.4 0.9 2.4-1.3 1.3 2.4 1.1-1.7 1.1-0.7h3.4l0.6-1 2.2-0.7h3.8l3.8 0.9 1.3 1 2-0.9 1.9-1h2l0.8 0.8 1.5 1.6 1.7-1.5 2.7-1.7v1.7l0.6 1.1c0 0 0.8 0 1.1-0.3 0.2-0.2 2.4-1.5 2.4-1.5h0.9l1.4 0.9 2.2 0.9v-1.2l1 0.9 1.8 1.1 1 0.1 2.2 1.5 2.4 0.6 1.7-1 2.2 0.5v1.1l0.6 1.4 2.3 0.8 3.8 0.1 0.6-2.5 1 0.1 2.6 1.7 1.9-1 1.5 0.3h1.2l2.6 0.3 2.4 1.3 1.1-0.2 1.2 0.2 0.6 1 1.2-0.4 1-0.3c0 0 1.3-0.4 1.5-0.7 0.1-0.3 0-1.2 0-1.2l0.8-1.3 0.6-0.3 1.5 0.1 2.1 1.3 2 0.8 1.4 1.2 0.9 0.6 2.2-0.3 1.7-0.1c0 0 1.3-0.3 1.3-0.6 0-0.2-0.8-1.5-0.8-1.5l-0.5-1.4 1.3-0.4 1.3 0.7 1.8 1.1 1.4 1.8 2.8-0.9 2.9-0.3 1.6-1.5 2.5-0.7 2.6-0.7 1.3 1.1v-1.1l1.6-0.7 2.3 1.5 1.1 0.7 1.7-1.5 1.8-1.1c0 0 0.2 1.8 0 2.1-0.1 0.2 0.1 1.4 0.1 1.4 0 0 0.1 0.3 0.5 0.3 0.5 0 1.6-0.1 1.6-0.1l2.8 0.8 1.6 0.4 2-0.5 1.8 0.2 1.2 1.3c0 0 1.3 0.2 1.7 0 0.4-0.1 1.3-0.7 1.3-0.7l0.9 0.5 1.3 1v-1.2l1.2 0.9 2.2 0.5v-1.4l2.2 1.5 2.1 1.9 1.8 1.4 1.5 0.8 1.2-0.3v-1.4l1.1-0.5 1.1-0.8 0.7 1.2 1.9 1.3 0.6-1.4c0 0 0.7 1.6 1.3 1.4 0.6-0.2 3.2-0.9 3.2-0.9l1.1 0.4 1.4 0.4 2 1.2 2.4-0.4v-0.6l0.7-0.8v1.9c0 0 1.7 0.5 2.1 0.5 0.4 0 3.1-2.1 3.1-2.1v-0.5l0.8 1.4v1.1l1.6 0.6 2.9-0.5 1.4-1.3 1.4 0.7v1.6l3.3-1 2.4 0.1 1.4 0.3 1.9-0.8 2.8-0.3h1.7l1.7-1.3 1.5-1 1.2 2.6 3.7-0.4 1.4-1 3.9-0.5c0 0-0.5-0.9 0-1.3 0.5-0.4 2-1.8 2-1.8l1.3-1.6 2.9 0.9 1.7-0.2 2.2-0.6v-2.2l0.9-2.3 1 2.2 0.8 1.9 1.7 1.2 1.5-0.8v-1l1.9-0.7 1.6-0.9 1.1 1.7 2 1.1 0.6 1.1 1.6-0.7 1.8 0.9 0.6 0.3 1.3-0.2 0.9-1.3v-1.2l0.8 1.5 1-0.1v-2.9l2 1.4 0.9 1 1-0.6v-2.8l2 0.6h2.2l1.7-0.5 3.1 1.9 1.5 0.9 2.4 0.5 2.2-0.6v-1.2l1.1-1.1 2.5-0.9 3.6-1.2 2.3 0.2 2.2-0.8 0.5 1.9 2.6 0.8 2.5 1.7 1.6 1.3-0.8-4 1.5 1.4 0.9-0.9 1.5 0.8 0.9 0.6c0 0-0.2-2.8 0-3 0.3-0.3 1.4 3 1.4 3v-1.1l1.3 1.1 2.1 1.3c0 0 1.3-0.7 1.4-0.9 0.2-0.3 0.5-1.4 0.6-1.7 0.2-0.2 0.8-1.5 0.8-1.5l1.9 0.5c0 0 0.9-0.1 0.9-0.4 0-0.2 1-0.7 1-0.7l1.4 2.7-1.1 2.2 2.6-2h1.3c0 0 1.7-0.8 2.1-1 0.4-0.3 0.8-1.2 0.8-1.2l1.4-0.3 1.2 1c0 0 1.8-0.4 1.8 0.1v2l2.8 1.2v-2.2l1.8-0.5 1.4 0.4 2.7 1.5 1.5-1.8 2.4 2.1 1.3-0.4 1.5-2.6 0.7 0.8 1.3 1.2 1.8 0.5 1.7-0.8 1.5-3.2 0.7-2 1.9 1.7 5.4 0.5 2.1 0.7c0 0 2.7-0.5 3.3-0.7 0.5-0.2 2.6-0.5 2.6-0.5 0 0-0.5-1.6-0.9-1.9-0.4-0.2-0.9-0.9-0.2-0.9 0.7-0.1 2.1 1.7 2.4 2 0.3 0.3 0.7 0.7 0.7 0.7l1.5-0.2 5.6-0.5 1.4-0.8 3.2-1.9 0.7-0.8 2.4 0.5 1.7 1.1zm304 19.8q0.2 0 0.4-0.1 0 0 0 0-0.4-0.4-0.4-0.7z"/>
</svg>