<svg version="1.2" xmlns="http://www.w3.org/2000/svg" viewBox="0 0 138 22" width="138" height="22">
	<title>image</title>
	<defs>
		<clipPath clipPathUnits="userSpaceOnUse" id="cp1">
			<path d="m0 0h138v22h-138z"/>
		</clipPath>
	</defs>
	<style>
		.s0 { fill: #ffffff } 
	</style>
	<g id="Clip-Path" clip-path="url(#cp1)">
		<g id="Layer">
			<path id="Layer" class="s0" d="m43.5 4.6c-0.4 0.3-1.1 0.4-4.5 1 0 0-0.1 0-0.7 0.3-0.8 0-2.1 0.6-2.5 0.8-0.1 0.1-0.3 0.6-0.4 1.4 0.3 0.3 0.4 0.3 0.7 0.3 1.6 0 3.9-0.9 4.2-0.8 1.1 0.2 1.6 1.9 1.6 2.7 0 0.1-0.1 0.7-0.1 0.7-0.2 0.4-0.8 0.7-1.6 0.8-3.7 0.3-5.4 0.6-5.8 0.9-0.1 0-0.2 0.5-0.2 0.7 0 0.9 1.8 1.1 2.1 1.1 1.2 0 1.7-0.6 2.2-0.6 0.5 0 1.5 1.2 1.5 2.6 0 0.9-0.5 2.3-2.8 2.3-0.6 0-3.1-0.4-4.9-1.7 0 0 0-0.3-0.7-0.9-0.3-0.4-0.7-2-0.7-3.2 0-2.6 1.3-4.4 1.4-5.4 0 0-0.6-0.9-0.8-1.2-0.2-0.2-0.3-0.3-0.3-1 0-2.1 1.3-2.5 1.4-2.5l0.5 0.1c0 0 1-0.5 1.1-0.7h0.7c0.5-0.1 5.4-1.4 6.3-1.4 0.8 0 1.1 0.1 1.4 0.6 0.2 0.4 1.1 1.9 1.1 2.4 0 0.2-0.1 0.6-0.2 0.7z"/>
			<path id="Layer" class="s0" d="m45.9 12.6c-0.1 0.2-0.2 0.6-0.3 0.8 0 0.3 1.2 0.8 2.2 0.9 3 0.2 2.6-1.3 3.5-0.8 0.6 0.3 1.1 1.8 1.1 2.6 0 2-1.9 2.6-3.6 2.6-2.3 0-4.4-1.1-4.4-1.1 0 0-1.8-2.3-1.8-3.9 0-3.7 2-7.8 2.1-8 0 0 0.1-1.1 0.2-1.8 0.1-0.7 0.6-0.9 1.1-1.4 1-0.1 2.7-0.9 8.3-1.5 0.7-0.1 1.6 0.9 2 2.4 0.1 0.3 0 1.3-0.4 1.4-0.2 0.1-0.7 0.1-5.2 0.6-0.8 0.1-1.6 0.2-1.9 0.4-0.4 0.3-1.1 1.5-1.2 1.8-0.1 0.4 0.1 0.7 0.6 0.6 2.4-0.3 4-1.3 4.2-1.3 0.8 0 1.6 1.1 1.9 2.4 0.1 0.7-0.1 1.3-0.3 1.5-0.7 0.4-1.8 0.7-3 0.9-0.5 0.1-0.9 0.1-1.1 0.1-0.1 0-0.3 0.1-0.4 0.2-1.8 0.2-3.3 0.4-3.6 0.6z"/>
			<path id="Layer" class="s0" d="m96.9 2.9c0 1-0.3 1.6-0.6 1.7-1.5 0.6-6.3 1.3-8.6 2-0.4 0.2-1.1 1.4-1.1 1.9 0 0.2 0.3 0.3 0.7 0.2 3.2-0.4 3.8-0.7 5.1-1.3 0.3 0 0.6 0.1 0.8 0.3 0.4 0.4 0.8 1.2 0.8 2.4 0 0.7-0.4 1.5-1.6 1.7-1.7 0.3-5.5 0.8-6.7 1-0.5 0-0.9 0.2-0.9 0.3-0.5 0.7-0.3 2.2 3.1 1.5 1.5-0.3 1.8-0.9 2.6-0.9 0 0 0.1 0 0.2 0 0.7 0.6 0.9 1.4 0.9 2.3 0 1.2-0.5 2-1.6 2.5 0 0.1-0.4 0.1-0.5 0.1 0 0-0.5 0.3-0.7 0.4-0.6 0.1-1.1 0.2-1.3 0.2-2.3 0-6.1-1.1-6.1-5.5 0-4.1 2.7-6.8 3.4-9.5 0 0 0.2-0.2 0.4-0.5 0-0.4 0.4-1.5 0.9-1.5 1.3-0.2 5.2-1 8.6-2.1q0.5-0.2 0.8 0c0.6 0.5 1.4 1.7 1.4 2.8z"/>
			<path id="Layer" fill-rule="evenodd" class="s0" d="m30.6 16.4c-0.4 0.4-0.9 1.8-2.1 1.8-0.6 0-1.2-0.3-1.5-0.7-2-2.1-4.4-4.2-4.9-4.2 0 0-0.4 0.4-0.4 1.2 0 0.2 0.2 2.7 0.2 3.5 0 0.3-0.4 1-1.2 1-0.8 0-1.6-0.7-1.9-1.4 0-0.2-0.1-0.3-0.1-0.3 0.1-0.7-0.1-0.6-0.1-1.3 0-1 0.3-2.7 0.2-3.7-0.6-0.8-0.9-1-0.6-2.9l0.5-0.6c0 0 0.9-0.1 1-0.4 0.4-0.9 0.6-2.3 0.7-3-0.4-0.4-1-0.8-1-1.2 0-2.4 1-3.2 1.9-3.6 0 0 0.6 0.1 0.8-0.2 1-0.1 1.8-0.1 1.8-0.1 2.8 0 4.9 3.4 4.9 6.3 0 2.1-1.9 4.7-2.2 5 0.8 0.8 3.1 2.1 3.8 2.9 0.4 0.5 0.4 1.7 0.2 1.9zm-5.1-10.7c0-1.1-1.2-1.6-2.1-1.4 0 0.8-0.7 4.5-0.7 4.5 0.1 0.1 0.4 0.2 0.5 0.1 1.8-0.9 2.3-2.1 2.3-3.2z"/>
			<path id="Layer" fill-rule="evenodd" class="s0" d="m83.4 5.6c0 1.3-1.1 2.6-2 3.3-1.7 1.2-3.4 1.9-5.1 2.4-0.4 0.1-0.7 3.2-0.7 6-0.1 0.7-0.2 1-0.3 1.1-0.1 0.2-0.6 0.5-1.1 0.5-0.7 0-1.6-0.6-1.7-0.7 0-0.1-0.3-0.6-0.3-1.9 0-1.3 0.3-3.8 0.2-4.1-1-0.3-1.9-1.3-1.9-2.1 0-0.3 0.3-1.7 0.4-2 0.1-0.2 0.3-0.5 0.7-0.5 0.9 0 1.2-0.2 1.2-0.7 0.1-1.1 0.1-2 0.1-2.3-0.6 0-0.7 0.2-0.8 0.2-0.8-0.2-2 0.8-2.8 0.8-0.6 0-1.1-0.3-1.3-0.6q0-0.1-0.1-0.2c0-0.1-0.1 0-0.1 0.1q0 0.3-0.1 0.8c0 0.3 0.2 0.6 0.2 0.6 0 4.1-0.3 7.1-0.4 7.4 0 0.3 0.3 0.9 0.3 2.6 0 2.4-1 2.6-1.5 2.6-0.5 0.1-1.3 0-1.5-0.1-0.7-0.6-0.9-1.3-1-1.8-0.1-0.2-0.1-0.6-0.1-0.7-0.2-1.6-1.7-3.3-2.2-4 0-0.1-0.5-1-1-1.5-0.1-0.1-0.4 0-0.5 0.2-0.5 0.9-0.6 4.1-0.8 6-0.1 0.2-0.4 0.9-0.6 1.1-0.2 0.1-3 0.4-3-2.8 0-1.4 1.3-6.1 1.3-7.5l-0.1-1.2c0.3-0.3 0.3-0.7 0.3-0.7l-0.3-1.6c0-1.3 0.1-1.9 0.2-2.3l0.3-0.5 0.1-0.4c0.2-0.3 0.6-0.6 1.1-0.6 0.4 0 1.6 0.4 1.8 0.6 0.7 0.5 0.5 2.5 0.7 3.8 0.1 1.4 2.2 3.5 3 4.7 0.1 0.1 0.3 0 0.4 0 0.3-1.1 0.3-4.3 0.3-4.4 0.2-1.7 0.2-3.5 0.3-3.9 0.1-0.3 0.6-0.6 0.8-0.6 0.7 0 1.7 0.7 1.9 1.5 0.1 0.2 0.1 0.3 0.1 0.5 0 0.2 0.1 0.1 0.2 0q0 0 0 0c0.1-0.2 0.4-0.7 0.7-0.9 0.8-0.5 2.6-0.9 3.3-1 0 0 0.5 0.2 0.6 0.2 0 0 0.7-0.2 1.4-0.6 0.3 0.1 0.9 0.2 1 0.2 1-0.1 3.9 0 5.1 0.2l0.4 0.2 0.9 0.3c0.9 0.5 2 2.5 2 4.3zm-3.7-0.6c0-0.8-3.3-1-4-0.9 0 0.7 0.1 2.1 0.3 2.7q0 0.3 0.4 0.3c1.1 0 3.3-1.3 3.3-2.1z"/>
			<path id="Layer" class="s0" d="m17.7 11.6c0-0.5-0.5-2.2-0.8-2.7-0.5-0.5-1-0.6-1.7-0.6-0.4 0-7.8 1.1-8.7 1.7-0.5 0.3-0.6 0.9-0.6 1.8 0 1.3 0.8 1.9 1 1.9 0.6 0 4.3-0.7 5.7-1 0.2 0 0.3 0.1 0.3 0.2 0 0.3-0.1 0.7-0.2 0.9-0.5 0.6-1.3 0.9-2 1.1-1-0.2-1.9 0.7-3 0.2-0.5 0-1.1 0.3-1.4-0.2-1.1-0.2-2.2-0.3-3.1-1-0.3-0.3-0.4-0.7-0.4-1.1 0-1.2 1.7-4.2 4.7-7 0.6-0.5 2.8-2.1 3.7-2.1 0.7 0 0.9 1.4 1.4 1.9 0.1 0.2 0.7 0.2 0.9 0.1 0.6-0.3 1-0.6 1-1.2 0-1.5-0.6-2.7-1-3.3-0.3-0.4-1.8-1.1-2.4-1.1-1.2 0-1.8 0.8-2.2 0.8-1.9 1.1-2.7 2.2-3.1 2.5-0.1 0.1-0.3 0.2-0.3 0.2 0 0-0.1 0.4-0.3 0.7-0.1 0-0.7 0.4-0.7 0.4-0.9 0.9-4.5 5.4-4.5 7.2 0 1.6 1.1 3.8 1.4 4.2 1.4 1.2 3.8 2.1 6.6 2.1 2 0 3.8-0.8 4.3-1.1 0.2 0 0.3 0 0.2 0.1 0 0.2 0 0.4 0 0.6 0 0.2-0.1 1.1-0.1 1.8 0 1.1 0.3 1.7 0.6 2 0.2 0.2 1.1 0.4 1.7 0.4 0.3 0 1.3-0.5 1.3-1.5 0-0.6-0.1-1.4 0-1.6 0.2-5.1 1.7-6.5 1.7-7.3z"/>
			<path id="Layer" fill-rule="evenodd" class="s0" d="m137.8 4.9c-0.2 0.4-1.5 0-2.8 0.1-1.9 0.1-7.3 0.6-9.1 1-0.7 0.1-1.4 1.1-1.5 1.7 0 0.2 0.2 0.5 0.4 0.5 2.3 0.1 4-0.4 4.8-0.5 0.2-0.1 1 0.1 1.6 1.5 0.2 0.3 0.3 0.9 0.2 1.8-0.1 0.3-0.6 0.9-1.2 1-0.9 0.2-2.5 0.3-2.5 0.3-0.1 0-0.6-0.1-0.9-0.1-1.1 0-2.4 0.3-2.5 0.3-0.2-0.1-0.7-0.2-0.9-0.1-0.3 0-0.4 0.4-0.4 0.6 0 0.3 1 1.4 3.4 0.9 1.8-0.3 3.2-0.7 3.6-0.3 0.4 0.4 0.4 1 0.3 1.4 0 0.7-0.2 1.5-0.6 2-0.2 0.3-0.6 0.6-3.5 1-2.6 0.4-4.6-0.1-6.1-2q-0.3-0.4-0.4-0.6-0.1-0.2-0.2-0.1c0 0.2-0.1 0.5-0.2 0.9-0.7 1.6-1.9 2.5-3.6 2.4-4.2-0.3-7.2-2.8-9-4.9-0.3-0.4-0.5-1-0.7-1.3q0 0 0 0c0-0.2-0.1-0.1-0.2 0 0 0.5 0 1.3 0 2.6 0 0.9 0.1 2-0.1 2.8-0.2 0.5-0.8 0.9-1 0.9-1.4-0.1-2.1-0.7-2.3-1.4-0.1-0.5-0.1-1.9-0.1-3.5 0-0.3-0.2-0.5-0.7-0.4l-0.4 0.1c0 0-0.4-0.1-0.9 0-0.5 0-1.7 0.2-2.3 0.4-0.2 0.1-0.2 0.2-0.3 0.3-0.9 1.5-1.2 3.2-2.2 4.1q-0.1 0-0.2 0c-1 0-2.2-1.4-2.2-1.8l0.1-0.6-0.1-0.5c-0.1-0.4 1.4-2.5 1.9-4.1 0.1-0.3 0.2-0.6 0.1-1.4 0.6-0.3 1-0.8 1-0.8 2.6-4.8 4.2-7.6 5.7-8.5 0.3-0.3 0.6-0.2 1.4 0.1 0.2 0.1 1.4 1.4 2 3.5 0 0 0 0.4 0 0.5 0.1 0.3 0.3 1 0.3 1 0.2 0.8 0.3 1.4 0.3 2.4q0.1 0.3 0.1 0.5c0 0.1 0.2 0.1 0.3-0.2q0 0 0 0 0.1-0.2 0.1-0.4c0.2-0.3 0.6-1.3 1.2-2 0 0 0.5-0.4 0.7-0.6 0.2-0.2 0.4-0.4 0.4-0.4 2.3-1.7 5.7-2.9 8-2.9 1.9 0 3 2.5 3 4.1 0 2.6-1.8 3.3-2.1 3.3-0.8 0-2.5-0.8-2.5-1.9 0-0.5 0.3-1.2 0.3-1.7 0-0.3-0.1-0.4-0.5-0.4-2.3 0-5.3 2.9-5.3 5.3 0 1 3.6 3.1 5.5 3.1 2.1 0 2.6-1.2 3.3-1.2 0.2 0 0.3 0 0.8 0.6q0.1 0.1 0.2 0.3 0.1 0 0.1-0.3 0-0.1 0-0.1c0-2.6 0.8-4.6 2-7l-0.1-1c0.2-1.1 0.8-1.8 1.3-2.2 0.4-0.3 1.2-0.3 1.2-0.3l0.4-0.3c0 0 0.7 0 1.2-0.1 3.9-0.5 9.8-1.6 10.5-1.8 0.8 0.2 1.7 1.3 2 2.6 0.1 0.3 0.2 1.3-0.1 1.8zm-35.5 0.3c-0.1-0.1-0.3-0.2-0.5-0.2-0.2 0-1.3 2.6-1.9 4-0.1 0.1 0 0.2 0.1 0.2 1.4 0 2.3-0.2 2.4-0.5 0.2-0.4 0.2-3.1-0.1-3.5z"/>
		</g>
	</g>
</svg>